<svg xmlns="http://www.w3.org/2000/svg" xmlns:xlink="http://www.w3.org/1999/xlink" version="1.1" x="0px" y="0px" viewBox="0 0 100 125" enable-background="new 0 0 100 100" xml:space="preserve"><rect x="55.8" y="30.8" fill="none" width="6.5" height="6.8"/><rect x="38.6" y="57.8" fill="none" width="23.7" height="3.3"/><path fill="none" d="M58.7,15.1c-0.7-3.8-4-6.8-8-7v7H58.7z"/><polygon fill="none" points="38,64.6 38.4,62.6 37.5,62.4 37,64.6 35.3,72.8 35.3,72.8 36.2,72.8 "/><path fill="none" d="M42,15.1h7.9v-7C45.9,8.4,42.7,11.3,42,15.1z"/><rect x="55.8" y="40" fill="none" width="6.5" height="6.7"/><polygon fill="none" points="55.8,50.1 44.9,50.1 44.9,49 38.6,49 38.6,55.5 62.3,55.5 62.3,49 55.8,49 "/><rect x="38.6" y="30.8" fill="none" width="6.3" height="6.8"/><polygon fill="none" points="63.3,64.6 62.8,62.4 62.3,62.5 61.9,62.6 62.3,64.6 62.3,64.6 64.1,72.8 64.9,72.8 65,72.8 "/><rect x="38.6" y="40" fill="none" width="6.3" height="6.7"/><polygon fill="none" points="64.1,72.8 36.2,72.8 36.2,73 35.3,72.8 35.3,72.8 35.3,73.6 47.4,73.6 47.4,73.6 53.4,73.6 53.4,73.6   65,73.6 65,72.8 64.9,72.8 64.1,73 "/><polygon points="70.3,59.9 70.1,59.9 70.2,60.5 "/><path d="M73.8,59.5L73.3,60c0.6,1.1,0.4,2.5-0.5,3.5c-0.4,0.4-1,0.7-1.5,0.8l-1-3.8l-0.2-0.6l-0.4-1.4c0.6-0.2,1.3-0.2,1.9,0  l0.5-0.5c-0.8-0.4-1.7-0.4-2.6-0.2L67.8,51l-2,0.5V23.6h-3.5v4.8h-6.5v-1.2h-5v-2.2v-7h8h1.6h1.3v-3h-1.3c-0.7-4.7-4.7-8.4-9.6-8.6  V5.2c0-0.2-0.2-0.4-0.4-0.4c-0.2,0-0.4,0.2-0.4,0.4v1.3c-4.9,0.2-8.8,3.9-9.5,8.6h-1.3v3h1.3H42h7.9v7v2.2h-4.9v1.2h-6.3v-4.8h-3.5  v28.2L33,51.2l-1.8,6.7c-0.9-0.4-2-0.3-2.9,0.1l0.5,0.5c0.7-0.3,1.6-0.3,2.3,0l-0.3,1.3l-0.1,0l0,0.3l-1.1,4.1c-0.7-0.1-1.5-0.4-2-1  c-0.8-0.9-0.9-2.1-0.4-3.1l-0.5-0.6c-0.7,1.3-0.6,3,0.4,4.2c0.6,0.7,1.5,1.1,2.3,1.3l-0.1,0.3l1.9,0.5l1.5,13.2l2.3-0.3l-0.2-1.5  h12.6v9.2h-8.8v9.5h23.7v-9.5h-8.9v-9.2H66l-0.2,1.5l2.3,0.3l1.5-13.4l1.7-0.5l0-0.1c0.7-0.1,1.3-0.5,1.8-1  C74.4,62.8,74.6,60.9,73.8,59.5z M50.7,8.1c4,0.2,7.3,3.1,8,7h-8V8.1z M55.8,30.8h6.5v6.8h-6.5V30.8z M55.8,40h6.5v6.7h-6.5V40z   M42,15.1c0.7-3.8,3.9-6.7,7.9-7v7H42z M38.6,30.8h6.3v6.8h-6.3V30.8z M38.6,40h6.3v6.7h-6.3V40z M38.6,49h6.3v1.2h10.8V49h6.5v6.5  H38.6V49z M38.6,57.8h23.7v3.3H38.6V57.8z M65,72.8v0.8H53.4h-6H35.3v-0.8h0.1l-0.1,0l1.7-8.2l0.5-2.2l0.9,0.2l-0.4,2l-1.8,8.2h27.8  l-1.8-8.2l0-0.1l-0.4-2l0.4-0.1l0.5-0.1l0.5,2.2L65,72.8L65,72.8L65,72.8z"/><rect x="47.4" y="73.6" fill="#000000" width="6" height="0"/><polygon fill="#000000" points="36.2,72.8 35.3,72.8 36.2,73 "/><text x="0" y="115" fill="#000000" font-size="5px" font-weight="bold" font-family="'Helvetica Neue', Helvetica, Arial-Unicode, Arial, Sans-serif">Created by Lexi Larson</text><text x="0" y="120" fill="#000000" font-size="5px" font-weight="bold" font-family="'Helvetica Neue', Helvetica, Arial-Unicode, Arial, Sans-serif">from the Noun Project</text></svg>